<svg xmlns="http://www.w3.org/2000/svg" viewBox="0 0 128 128" fill="none">
  <defs>
    <linearGradient id="icon-bg" x1="16" x2="112" y1="12" y2="116" gradientUnits="userSpaceOnUse">
      <stop stop-color="#2C1530"/>
      <stop offset="1" stop-color="#150C1E"/>
    </linearGradient>
    <linearGradient id="icon-gold" x1="30" x2="96" y1="26" y2="102" gradientUnits="userSpaceOnUse">
      <stop stop-color="#F3D590"/>
      <stop offset="1" stop-color="#C59039"/>
    </linearGradient>
  </defs>
  <rect x="6" y="6" width="116" height="116" rx="32" fill="url(#icon-bg)"/>
  <rect x="10.5" y="10.5" width="107" height="107" rx="27.5" stroke="#6E4D26" stroke-opacity=".95"/>
  <path d="M64 21c5 8 13 12 22 14-10 5-15 12-17 22-3-10-8-17-18-22 9-2 16-6 21-14Z" fill="url(#icon-gold)"/>
  <path d="M63 55c-11 0-23 5-31 15 8 10 20 15 31 15 12 0 24-5 33-15-9-10-21-15-33-15Z" fill="#EEDFB9" fill-opacity=".95"/>
  <path d="M63 59c-9 0-18 4-24 11 6 7 15 11 24 11 10 0 19-4 26-11-7-7-16-11-26-11Z" fill="#1A1022"/>
  <circle cx="63" cy="70" r="9" fill="url(#icon-gold)"/>
  <circle cx="63" cy="70" r="3.5" fill="#211226"/>
  <path d="M32 82c-8-4-13-12-13-22 0-14 11-25 25-25 8 0 16 4 20 11-12 2-21 12-21 25 0 5 1 9 4 14-6 1-10 0-15-3Z" fill="#76B0A9" fill-opacity=".75"/>
  <path d="M96 82c8-4 13-12 13-22 0-14-11-25-25-25-8 0-16 4-20 11 12 2 21 12 21 25 0 5-1 9-4 14 6 1 10 0 15-3Z" fill="#76B0A9" fill-opacity=".75"/>
</svg>
